<?xml version="1.0" encoding="UTF-8"?><svg id="Layer_2" xmlns="http://www.w3.org/2000/svg" viewBox="0 0 1266.77 381.33"><g id="Layer_1-2"><g><path d="M211.08,164c24-30,27-83,25-102s-11-22-15-22-16-1-24-5-7-15-25-16-41,17-48,23c-9,5-25,9-30,21s8,35,10,40,20,30,26,39c-15-12-37-34-45-40s-29-11-41,10C16.08,117,1.08,131,.08,139s7,22,15,30c-6,14-10,22-8,33s13,23,37,25,75-7,87-11c-25,10-60,30-69,37s-33,39,8,56c0,20,13,38,38,32,8,24,22,34,46,22,16,19,87,53,77-81,35,74,57,67,60,66s15-5,22-3,37,9,54-22c-6-17-8-16-6-26s6-15,6-29-16-27-44-34-41-10-55-19c26,6,132,25,112-45,23-18-3-45-25-47,1-21-40-66-96,33,23-12,42-12,42-12,0,0-36,14-47,23,20-2,48-14,70-8-19,7-69,15-79,24,16,5,47-6,66,5-30-1-73,1-85,18,14,9,60,20,67,44-26-20-55-30-69-32,6,9,35,31,38,46-24-19-25-32-54-44-11,11-13,40-14,60-7-21-5-42-3-59-13,6-38,50-43,64-1-19,19-58,33-67-19,0-46,26-57,38,0-22,51-48,59-52-15-7-81-31-89-41,21,2,53,21,77,21-7-15-54-32-68-36,27-6,68,20,77,30,2-16-17-39-28-53,20,12,32,33,37,41,0-18-17-52-30-68,23,14,36,44,38,61,6-19,2-47-11-73,24,17,22,48,25,78Z" fill="#020202"/><path d="M293.08,34s-39,110-90,158c-12,12-7,28,15,8s76-127,75-166Z" fill="#020202"/><path d="M314.08,53c0,4.97-4.03,9-9,9s-7-4.03-7-9,3.03-6,8-6,8,1.03,8,6Z" fill="#020202"/><ellipse cx="301.08" cy="9" rx="8" ry="9" fill="#020202"/><ellipse cx="262.58" cy="63.5" rx="8.5" ry="7.5" fill="#020202"/><circle cx="302.58" cy="75.5" r="7.5" fill="#020202"/><circle cx="272.08" cy="44" r="8" fill="#020202"/><ellipse cx="281.08" cy="23" rx="9" ry="7" fill="#020202"/><circle cx="310.08" cy="31" r="8" fill="#020202"/><path d="M509.59,150.07c-3-11.4-7-24.2-23.4-24.2-14.8,0-20.6,11-20.6,20.2,0,14,9.2,20,23.2,27.2,13.4,6.6,32.2,14.6,32.2,36,0,19.8-16.4,34.8-40.4,34.8-7.8,0-13.8-1.6-18.2-3-4.2-1.2-7-2.8-8.6-3.6-1.6-4.2-3.8-19-5-28.4l5.8-1.4c3,11.2,10.4,29.4,29.4,29.4,14.4,0,22.6-8.8,22.6-22.4s-10.4-20.2-24.2-27.6c-10.8-5.8-30.2-14-30.2-35.2,0-17.6,14-32.6,37.4-32.6,7.2,0,14.4,1.4,23,4.2,.6,6.6,1.6,13.6,3,25.8l-6,.8Z" fill="#020202"/><path d="M584.99,241.67v-5.2c11-1,12.8-2.2,12.8-14.4v-30c0-15.4-5.8-23.4-19-23.4-7.8,0-15.4,4-20.6,10.2v43.2c0,12,1,13.4,12.8,14.4v5.2h-39.2v-5.2c11.6-1,13.4-2.2,13.4-14.4v-87c0-11.6-.6-12.6-13.4-13.6v-4.8c9-1.4,19.8-4.4,26.4-6.6v61.6c6.6-6.4,16.8-13.4,26.8-13.4,15,0,25.8,9.6,25.8,31.6v32.4c0,12.2,1.4,13.2,12.6,14.2v5.2h-38.4Z" fill="#020202"/><path d="M692.78,243.87c-2.2,0-6.2-1.6-8-3.4-2.6-2.6-3.8-5.2-4.4-8.4-7.8,5-16.4,11.8-22.8,11.8-12.6,0-21.8-10.8-21.8-22.8,0-8.8,4.8-15.2,15.4-18.6,11.2-3.8,24.8-9,28.8-12v-2.6c0-13.6-6.8-21.2-16.4-21.2-4,0-7,1.6-8.8,3.8-2.4,2.6-3.8,6.4-5.6,11.8-.6,2.8-2.6,4-5.2,4-3,0-7.6-3.4-7.6-7.8,0-2.6,2.4-4.8,6-7.4,4.6-3.4,16.4-10.6,27.2-12.8,5.4,0,11.2,1.6,15,5,6,5.4,8,12.8,8,22.2v35c0,8.4,3.2,11.2,6.6,11.2,2.2,0,5-1,6.8-2.2l2,5.4-15.2,9Zm-12.8-46.8l-18.2,8.2c-7.6,3.2-11.8,6.8-11.8,13.6,0,9.4,7.6,14,13.6,14,5.2,0,12.8-4,16.4-7.4v-28.4Z" fill="#020202"/><path d="M766.78,241.67v-5.2c11.4-1.2,12.8-2.8,12.8-15.2v-30.6c0-13-4.4-21.8-17.6-21.8-8,0-15.8,5-21.6,10.4v42.6c0,13,1,13.4,12.8,14.6v5.2h-39.4v-5.2c12.6-1.2,13.6-2.4,13.6-14.4v-37.6c0-12-1.2-12.8-11.4-14.4v-4.8c8.8-1.6,17.2-3.8,24.4-7.6v14.8c3.6-2.8,7.6-5.4,12.4-8.4,5-3.4,10.4-5.8,15.8-5.8,14.6,0,24,10.2,24,28v35.6c0,12.8,1,13.4,12.2,14.6v5.2h-38Z" fill="#020202"/><path d="M895.18,161.67c-1.8,3-5.6,8-8.4,9.4l-10.4-.6c3.4,4,5.4,10.2,5.4,16.6,0,20-16.4,29.8-32.4,29.8-2.8,0-6.2-.4-9.4-1-2.8,2-6,5.6-6,8.2,0,3.6,3,7,11.2,7,7.4,0,14.2-.2,20.4-.2,11.8,0,26.6,3.6,26.6,21.6s-21.4,35.6-45.8,35.6c-20.2,0-31.8-11-32-22,0-3.8,1.4-7.8,4.4-10.6,3.4-3.6,10.8-9.8,15-13-6.4-2-11.2-6.2-13.6-10-1.4-2.6-2-5.8-1.8-7.4,6.8-2.6,12.8-7.6,15.6-11.4-7.4-3.4-15.6-11.6-15.6-24.6,0-21,19-30.8,33.2-30.8,5.8,0,12.2,1.6,17.4,4.6,8.8-.6,17.6-1.6,25-2.8l1.2,1.6Zm-57.8,85.4c-5.4,4.2-9,9.6-9,15,0,10.2,10.8,16.2,24.4,16.2,18.2,0,27.6-8.6,27.6-20.2,0-6-3-10.4-8-12.6-4.6-2.2-10.2-2.6-18.2-2.6-9,0-13.2,1.2-16.8,4.2Zm-4.4-60.8c0,14.4,8,24.4,18.4,24.4,8.6-.2,16.4-7.8,16.4-22s-7.8-24.6-18.4-24.6c-8.6,0-16.4,8.2-16.4,22.2Z" fill="#020202"/><path d="M929.98,177.87c5.6-9.2,13.4-19.6,22.8-19.6,6.6,0,10.8,4.8,10.8,9,0,3.4-2,6.8-5.6,8.6-2,.8-3.6,.6-4.8-.4-2.6-2.8-4.6-3.8-7.6-3.8-5.2,0-12,6.4-16,17.4v32.8c0,12.4,.8,13.6,15.4,14.6v5.2h-41.8v-5.2c12.2-1,13.4-2.2,13.4-14.4v-37.6c0-12.6-.8-13.2-11.8-14.4v-4.8c8.6-1.4,16.4-3.8,24.8-7.6v20.2h.4Z" fill="#020202"/><path d="M973.18,241.67v-5.2c12-1,13.4-2.2,13.4-14.6v-38.2c0-11-.4-12-12.2-13.6v-4.8c9.4-1.6,17.6-4,25.2-7.4v64c0,12.4,1.4,13.6,13.4,14.6v5.2h-39.8Zm9.8-109c0-5.4,4.2-9.4,9.2-9.4s8.8,4,8.8,9.4c0,4.8-3.8,9.2-9,9.2-4.8,0-9-4.4-9-9.2Z" fill="#020202"/><path d="M1070.37,205.07h-42.79l2.6-10.4h42.8l-2.61,10.4Z" fill="#020202"/><path d="M1181.17,212.67c-1,5.6-5,23.4-6.8,29h-83.2v-5.8c15.6-.8,17-2,17-17.6v-73.4c0-15.4-1.2-16.4-16.8-17.6v-5.6h48v5.6c-15.2,1-17.2,2-17.2,17.6v72.2c0,10,1.2,13.6,4.6,15.6,3.6,2,10.2,2.4,18.2,2.4,10.2,0,16.4-1,20.6-5.6,3.4-3.6,6.8-9.2,9.6-17.8l6,1Z" fill="#020202"/><path d="M1251.57,243.87c-2.2,0-6.2-1.6-8-3.4-2.6-2.6-3.8-5.2-4.4-8.4-7.8,5-16.4,11.8-22.8,11.8-12.6,0-21.8-10.8-21.8-22.8,0-8.8,4.8-15.2,15.4-18.6,11.2-3.8,24.8-9,28.8-12v-2.6c0-13.6-6.8-21.2-16.4-21.2-4,0-7,1.6-8.8,3.8-2.4,2.6-3.8,6.4-5.6,11.8-.6,2.8-2.6,4-5.2,4-3,0-7.6-3.4-7.6-7.8,0-2.6,2.4-4.8,6-7.4,4.6-3.4,16.4-10.6,27.2-12.8,5.4,0,11.2,1.6,15,5,6,5.4,8,12.8,8,22.2v35c0,8.4,3.2,11.2,6.6,11.2,2.2,0,5-1,6.8-2.2l2,5.4-15.2,9Zm-12.8-46.8l-18.2,8.2c-7.6,3.2-11.8,6.8-11.8,13.6,0,9.4,7.6,14,13.6,14,5.2,0,12.8-4,16.4-7.4v-28.4Z" fill="#020202"/><line x1="440.58" y1="320.5" x2="1247.58" y2="320.5" fill="#020202" stroke="#fff" stroke-width="6"/></g></g></svg>